<?xml version="1.0" standalone="no"?>
<!DOCTYPE svg PUBLIC "-//W3C//DTD SVG 20010904//EN"
 "http://www.w3.org/TR/2001/REC-SVG-20010904/DTD/svg10.dtd">
<svg version="1.0" xmlns="http://www.w3.org/2000/svg"
 width="167.187676pt" height="170.000000pt" viewBox="0 0 167.187676 170.000000"
 preserveAspectRatio="xMidYMid meet">
<metadata>
Created by potrace 1.16, written by Peter Selinger 2001-2019
</metadata>
<g transform="translate(-42.812324,211.000000) scale(0.100000,-0.100000)"
fill="#000000" stroke="none">
<path d="M665 2100 c-4 -6 -9 -70 -12 -143 -7 -178 16 -291 86 -432 65 -129
132 -211 234 -286 90 -68 143 -96 253 -139 94 -36 193 -106 243 -173 91 -120
126 -244 119 -418 l-4 -99 142 0 c138 0 142 1 148 23 10 36 7 247 -5 316 -13
81 -65 222 -110 297 -89 149 -258 280 -435 338 -154 50 -304 209 -356 376 -19
64 -23 96 -23 213 l1 137 -137 0 c-85 0 -140 -4 -144 -10z"/>
<path d="M1816 2088 c-21 -109 -32 -149 -60 -221 -42 -107 -118 -219 -201
-295 l-66 -60 65 -31 c35 -17 88 -47 116 -66 29 -19 58 -35 65 -35 17 0 120
117 179 204 26 38 65 108 88 155 39 84 98 289 98 344 l0 27 -140 0 c-137 0
-140 0 -144 -22z"/>
<path d="M1295 1934 c-53 -20 -120 -86 -134 -133 -25 -86 2 -167 69 -202 125
-67 290 40 290 188 0 115 -114 190 -225 147z"/>
<path d="M731 1064 c-115 -126 -196 -267 -255 -444 -19 -58 -37 -129 -41 -157
l-7 -53 145 0 145 0 7 48 c24 167 124 355 251 471 31 28 55 53 53 55 -2 2 -31
17 -64 34 -33 16 -84 46 -114 66 -29 20 -57 36 -61 36 -4 0 -31 -25 -59 -56z"/>
</g>
</svg>
